<?xml version="1.0" encoding="UTF-8"?>
<!--
  Icon Sprite Sheet — auto-generated by scripts/extract-icons.mjs
  109 icons in a 12-column grid.
  Open in Figma or Inkscape to edit. Runtime use via <use href="/sprites/icons.svg#icon-id"/>.
-->
<svg xmlns="http://www.w3.org/2000/svg" xmlns:xlink="http://www.w3.org/1999/xlink"
     viewBox="0 0 576 560" width="2304" height="2240"
     style="background:#fff">

<defs>
  <symbol id="adjustments-horizontal" viewBox="0 0 24 24" fill="currentColor" stroke="currentColor">
    <path
		d="M18.75 12.75h1.5a.75.75 0 0 0 0-1.5h-1.5a.75.75 0 0 0 0 1.5ZM12 6a.75.75 0 0 1 .75-.75h7.5a.75.75 0 0 1 0 1.5h-7.5A.75.75 0 0 1 12 6ZM12 18a.75.75 0 0 1 .75-.75h7.5a.75.75 0 0 1 0 1.5h-7.5A.75.75 0 0 1 12 18ZM3.75 6.75h1.5a.75.75 0 1 0 0-1.5h-1.5a.75.75 0 0 0 0 1.5ZM5.25 18.75h-1.5a.75.75 0 0 1 0-1.5h1.5a.75.75 0 0 1 0 1.5ZM3 12a.75.75 0 0 1 .75-.75h7.5a.75.75 0 0 1 0 1.5h-7.5A.75.75 0 0 1 3 12ZM9 3.75a2.25 2.25 0 1 0 0 4.5 2.25 2.25 0 0 0 0-4.5ZM12.75 12a2.25 2.25 0 1 1 4.5 0 2.25 2.25 0 0 1-4.5 0ZM9 15.75a2.25 2.25 0 1 0 0 4.5 2.25 2.25 0 0 0 0-4.5Z"
	/>
  </symbol>

  <symbol id="adjustments-horizontal-outline" viewBox="0 0 24 24" fill="none" stroke="currentColor">
    <path
		stroke-linecap="round"
		stroke-linejoin="round"
		d="M10.5 6h9.75M10.5 6a1.5 1.5 0 1 1-3 0m3 0a1.5 1.5 0 1 0-3 0M3.75 6H7.5m3 12h9.75m-9.75 0a1.5 1.5 0 0 1-3 0m3 0a1.5 1.5 0 0 0-3 0m-3.75 0H7.5m9-6h3.75m-3.75 0a1.5 1.5 0 0 1-3 0m3 0a1.5 1.5 0 0 0-3 0m-9.75 0h9.75"
	/>
  </symbol>

  <symbol id="archive-box" viewBox="0 0 24 24" fill="none" stroke="currentColor">
    <path
		stroke-linecap="round"
		stroke-linejoin="round"
		d="m20.25 7.5-.625 10.632a2.25 2.25 0 0 1-2.247 2.118H6.622a2.25 2.25 0 0 1-2.247-2.118L3.75 7.5M10 11.25h4M3.375 7.5h17.25c.621 0 1.125-.504 1.125-1.125v-1.5c0-.621-.504-1.125-1.125-1.125H3.375c-.621 0-1.125.504-1.125 1.125v1.5c0 .621.504 1.125 1.125 1.125Z"
	/>
  </symbol>

  <symbol id="arrow-down-tray" viewBox="0 0 24 24" fill="none" stroke="currentColor">
    <path
		stroke-linecap="round"
		stroke-linejoin="round"
		d="M3 16.5v2.25A2.25 2.25 0 0 0 5.25 21h13.5A2.25 2.25 0 0 0 21 18.75V16.5M16.5 12 12 16.5m0 0L7.5 12m4.5 4.5V3"
	/>
  </symbol>

  <symbol id="arrow-left" viewBox="0 0 24 24" fill="none" stroke="currentColor">
    <path stroke-linecap="round" stroke-linejoin="round" d="M10.5 19.5 3 12m0 0 7.5-7.5M3 12h18" />
  </symbol>

  <symbol id="arrow-left-tag" viewBox="0 0 24 24" fill="none" stroke="currentColor">
    <path
		d="M16.75 12H6.75M6.75 12L9.5 14.75M6.75 12L9.5 9.25"
		stroke-linecap="round"
		stroke-linejoin="round"
	></path><path
		d="M2 15V9C2 6.79086 3.79086 5 6 5H18C20.2091 5 22 6.79086 22 9V15C22 17.2091 20.2091 19 18 19H6C3.79086 19 2 17.2091 2 15Z"
	></path>
  </symbol>

  <symbol id="arrow-path" viewBox="0 0 24 24" fill="none" stroke="currentColor">
    <path
		stroke-linecap="round"
		stroke-linejoin="round"
		d="M16.023 9.348h4.992v-.001M2.985 19.644v-4.992m0 0h4.992m-4.993 0 3.181 3.183a8.25 8.25 0 0 0 13.803-3.7M4.031 9.865a8.25 8.25 0 0 1 13.803-3.7l3.181 3.182m0-4.991v4.99"
	/>
  </symbol>

  <symbol id="arrow-right" viewBox="0 0 24 24" fill="none" stroke="currentColor">
    <path stroke-linecap="round" stroke-linejoin="round" d="M13.5 4.5 21 12m0 0-7.5 7.5M21 12H3" />
  </symbol>

  <symbol id="arrow-right-circle" viewBox="0 0 24 24" fill="none" stroke="currentColor">
    <path
		stroke-linecap="round"
		stroke-linejoin="round"
		d="m12.75 15 3-3m0 0-3-3m3 3h-7.5M21 12a9 9 0 1 1-18 0 9 9 0 0 1 18 0Z"
	/>
  </symbol>

  <symbol id="arrow-right-tag" viewBox="0 0 24 24" fill="none" stroke="currentColor">
    <path
		d="M6.75 12H16.75M16.75 12L14 14.75M16.75 12L14 9.25"
		stroke-linecap="round"
		stroke-linejoin="round"
	></path><path
		d="M2 15V9C2 6.79086 3.79086 5 6 5H18C20.2091 5 22 6.79086 22 9V15C22 17.2091 20.2091 19 18 19H6C3.79086 19 2 17.2091 2 15Z"
	></path>
  </symbol>

  <symbol id="arrow-turn-down-right" viewBox="0 0 16 16" fill="currentColor">
    <path
		fill-rule="evenodd"
		d="M2.75 2a.75.75 0 0 1 .75.75v6.5h7.94l-.97-.97a.75.75 0 0 1 1.06-1.06l2.25 2.25a.75.75 0 0 1 0 1.06l-2.25 2.25a.75.75 0 1 1-1.06-1.06l.97-.97H2.75A.75.75 0 0 1 2 10V2.75A.75.75 0 0 1 2.75 2Z"
		clip-rule="evenodd"
	/>
  </symbol>

  <symbol id="arrow-up-circle" viewBox="0 0 24 24" fill="none" stroke="currentColor">
    <path
		stroke-linecap="round"
		stroke-linejoin="round"
		d="m15 11.25-3-3m0 0-3 3m3-3v7.5M21 12a9 9 0 1 1-18 0 9 9 0 0 1 18 0Z"
	/>
  </symbol>

  <symbol id="arrow-up-left" viewBox="0 0 24 24" fill="none" stroke="currentColor">
    <path
		stroke-linecap="round"
		stroke-linejoin="round"
		d="m19.5 19.5-15-15m0 0v11.25m0-11.25h11.25"
	/>
  </symbol>

  <symbol id="arrow-up-tray" viewBox="0 0 24 24" fill="none" stroke="currentColor">
    <path
		stroke-linecap="round"
		stroke-linejoin="round"
		d="M3 16.5v2.25A2.25 2.25 0 0 0 5.25 21h13.5A2.25 2.25 0 0 0 21 18.75V16.5m-13.5-9L12 3m0 0 4.5 4.5M12 3v13.5"
	/>
  </symbol>

  <symbol id="arrow-uturn-left" viewBox="0 0 24 24" fill="none" stroke="currentColor">
    <path
		stroke-linecap="round"
		stroke-linejoin="round"
		d="M9 15 3 9m0 0 6-6M3 9h12a6 6 0 0 1 0 12h-3"
	/>
  </symbol>

  <symbol id="arrow-uturn-right" viewBox="0 0 24 24" fill="none" stroke="currentColor">
    <path
		stroke-linecap="round"
		stroke-linejoin="round"
		d="m15 15 6-6m0 0-6-6m6 6H9a6 6 0 0 0 0 12h3"
	/>
  </symbol>

  <symbol id="arrows-pointing-out" viewBox="0 0 24 24" fill="none" stroke="currentColor">
    <path
		stroke-linecap="round"
		stroke-linejoin="round"
		d="M3.75 3.75v4.5m0-4.5h4.5m-4.5 0L9 9M3.75 20.25v-4.5m0 4.5h4.5m-4.5 0L9 15M20.25 3.75h-4.5m4.5 0v4.5m0-4.5L15 9m5.25 11.25h-4.5m4.5 0v-4.5m0 4.5L15 15"
	/>
  </symbol>

  <symbol id="bars3-bottom-left" viewBox="0 0 16 16" fill="currentColor">
    <path
		fill-rule="evenodd"
		d="M2 3.75A.75.75 0 0 1 2.75 3h10.5a.75.75 0 0 1 0 1.5H2.75A.75.75 0 0 1 2 3.75ZM2 8a.75.75 0 0 1 .75-.75h10.5a.75.75 0 0 1 0 1.5H2.75A.75.75 0 0 1 2 8Zm0 4.25a.75.75 0 0 1 .75-.75h4.5a.75.75 0 0 1 0 1.5h-4.5a.75.75 0 0 1-.75-.75Z"
		clip-rule="evenodd"
	/>
  </symbol>

  <symbol id="bars-arrow-up" viewBox="0 0 24 24" fill="none" stroke="currentColor">
    <path
		stroke-linecap="round"
		stroke-linejoin="round"
		d="M3 4.5h14.25M3 9h9.75M3 13.5h5.25m5.25-.75L17.25 9m0 0L21 12.75M17.25 9v12"
	/>
  </symbol>

  <symbol id="bold" viewBox="0 0 24 24" fill="none" stroke="currentColor">
    <path
		stroke-linejoin="round"
		d="M6.75 3.744h-.753v8.25h7.125a4.125 4.125 0 0 0 0-8.25H6.75Zm0 0v.38m0 16.122h6.747a4.5 4.5 0 0 0 0-9.001h-7.5v9h.753Zm0 0v-.37m0-15.751h6a3.75 3.75 0 1 1 0 7.5h-6m0-7.5v7.5m0 0v8.25m0-8.25h6.375a4.125 4.125 0 0 1 0 8.25H6.75m.747-15.38h4.875a3.375 3.375 0 0 1 0 6.75H7.497v-6.75Zm0 7.5h5.25a3.75 3.75 0 0 1 0 7.5h-5.25v-7.5Z"
	/>
  </symbol>

  <symbol id="bolt" viewBox="0 0 24 24" fill="none" stroke="currentColor">
    <path
		stroke-linecap="round"
		stroke-linejoin="round"
		d="m3.75 13.5 10.5-11.25L12 10.5h8.25L9.75 21.75 12 13.5H3.75Z"
	/>
  </symbol>

  <symbol id="bookmark" viewBox="0 0 24 24" fill="none" stroke="currentColor">
    <path
		stroke-linecap="round"
		stroke-linejoin="round"
		d="M17.593 3.322c1.1.128 1.907 1.077 1.907 2.185V21L12 17.25 4.5 21V5.507c0-1.108.806-2.057 1.907-2.185a48.507 48.507 0 0 1 11.186 0Z"
	/>
  </symbol>

  <symbol id="bookmark-slash" viewBox="0 0 24 24" fill="none" stroke="currentColor">
    <path
		stroke-linecap="round"
		stroke-linejoin="round"
		d="m3 3 1.664 1.664M21 21l-1.5-1.5m-5.485-1.242L12 17.25 4.5 21V8.742m.164-4.078a2.15 2.15 0 0 1 1.743-1.342 48.507 48.507 0 0 1 11.186 0c1.1.128 1.907 1.077 1.907 2.185V19.5M4.664 4.664 19.5 19.5"
	/>
  </symbol>

  <symbol id="calendar" viewBox="0 0 24 24" fill="none" stroke="currentColor">
    <path
		stroke-linecap="round"
		stroke-linejoin="round"
		d="M6.75 3v2.25M17.25 3v2.25M3 18.75V7.5a2.25 2.25 0 0 1 2.25-2.25h13.5A2.25 2.25 0 0 1 21 7.5v11.25m-18 0A2.25 2.25 0 0 0 5.25 21h13.5A2.25 2.25 0 0 0 21 18.75m-18 0v-7.5A2.25 2.25 0 0 1 5.25 9h13.5A2.25 2.25 0 0 1 21 11.25v7.5"
	/>
  </symbol>

  <symbol id="camera-solid" viewBox="0 0 24 24" fill="currentColor">
    <path d="M12 9a3.75 3.75 0 1 0 0 7.5A3.75 3.75 0 0 0 12 9Z" />
	<path
		fill-rule="evenodd"
		d="M9.344 3.071a49.52 49.52 0 0 1 5.312 0c.967.052 1.83.585 2.332 1.39l.821 1.317c.24.383.645.643 1.11.71.386.054.77.113 1.152.177 1.432.239 2.429 1.493 2.429 2.909V18a3 3 0 0 1-3 3h-15a3 3 0 0 1-3-3V9.574c0-1.416.997-2.67 2.429-2.909.382-.064.766-.123 1.151-.178a1.56 1.56 0 0 0 1.11-.71l.822-1.315a2.942 2.942 0 0 1 2.332-1.39ZM6.75 12.75a5.25 5.25 0 1 1 10.5 0 5.25 5.25 0 0 1-10.5 0Zm12-1.5a.75.75 0 1 0 0-1.5.75.75 0 0 0 0 1.5Z"
		clip-rule="evenodd"
	/>
  </symbol>

  <symbol id="chart-bar" viewBox="0 0 24 24" fill="currentColor">
    <path
		d="M18.375 2.25c-1.035 0-1.875.84-1.875 1.875v15.75c0 1.035.84 1.875 1.875 1.875h.75c1.035 0 1.875-.84 1.875-1.875V4.125c0-1.036-.84-1.875-1.875-1.875h-.75ZM9.75 8.625c0-1.036.84-1.875 1.875-1.875h.75c1.036 0 1.875.84 1.875 1.875v11.25c0 1.035-.84 1.875-1.875 1.875h-.75a1.875 1.875 0 0 1-1.875-1.875V8.625ZM3 13.125c0-1.036.84-1.875 1.875-1.875h.75c1.036 0 1.875.84 1.875 1.875v6.75c0 1.035-.84 1.875-1.875 1.875h-.75A1.875 1.875 0 0 1 3 19.875v-6.75Z"
	/>
  </symbol>

  <symbol id="chat-bubble" viewBox="0 0 24 24" fill="none" stroke="currentColor">
    <path
		stroke-linecap="round"
		stroke-linejoin="round"
		d="M8.625 12a.375.375 0 1 1-.75 0 .375.375 0 0 1 .75 0Zm0 0H8.25m4.125 0a.375.375 0 1 1-.75 0 .375.375 0 0 1 .75 0Zm0 0H12m4.125 0a.375.375 0 1 1-.75 0 .375.375 0 0 1 .75 0Zm0 0h-.375M21 12c0 4.556-4.03 8.25-9 8.25a9.764 9.764 0 0 1-2.555-.337A5.972 5.972 0 0 1 5.41 20.97a5.969 5.969 0 0 1-.474-.065 4.48 4.48 0 0 0 .978-2.025c.09-.457-.133-.901-.467-1.226C3.93 16.178 3 14.189 3 12c0-4.556 4.03-8.25 9-8.25s9 3.694 9 8.25Z"
	/>
  </symbol>

  <symbol id="chat-bubble-oval" viewBox="0 0 24 24" fill="none" stroke="currentColor">
    <path
		stroke-linecap="round"
		stroke-linejoin="round"
		d="M12 20.25c4.97 0 9-3.694 9-8.25s-4.03-8.25-9-8.25S3 7.444 3 12c0 2.104.859 4.023 2.273 5.48.432.447.74 1.04.586 1.641a4.483 4.483 0 0 1-.923 1.785A5.969 5.969 0 0 0 6 21c1.282 0 2.47-.402 3.445-1.087.81.22 1.668.337 2.555.337Z"
	/>
  </symbol>

  <symbol id="chat-bubble-oval-ellipsis" viewBox="0 0 24 24" fill="none" stroke="currentColor">
    <path
		stroke-linecap="round"
		stroke-linejoin="round"
		d="M8.625 12a.375.375 0 1 1-.75 0 .375.375 0 0 1 .75 0Zm0 0H8.25m4.125 0a.375.375 0 1 1-.75 0 .375.375 0 0 1 .75 0Zm0 0H12m4.125 0a.375.375 0 1 1-.75 0 .375.375 0 0 1 .75 0Zm0 0h-.375M21 12c0 4.556-4.03 8.25-9 8.25a9.764 9.764 0 0 1-2.555-.337A5.972 5.972 0 0 1 5.41 20.97a5.969 5.969 0 0 1-.474-.065 4.48 4.48 0 0 0 .978-2.025c.09-.457-.133-.901-.467-1.226C3.93 16.178 3 14.189 3 12c0-4.556 4.03-8.25 9-8.25s9 3.694 9 8.25Z"
	/>
  </symbol>

  <symbol id="chat-bubbles" viewBox="0 0 24 24" fill="none" stroke="currentColor">
    <path
		stroke-linecap="round"
		stroke-linejoin="round"
		d="M20.25 8.511c.884.284 1.5 1.128 1.5 2.097v4.286c0 1.136-.847 2.1-1.98 2.193-.34.027-.68.052-1.02.072v3.091l-3-3c-1.354 0-2.694-.055-4.02-.163a2.115 2.115 0 0 1-.825-.242m9.345-8.334a2.126 2.126 0 0 0-.476-.095 48.64 48.64 0 0 0-8.048 0c-1.131.094-1.976 1.057-1.976 2.192v4.286c0 .837.46 1.58 1.155 1.951m9.345-8.334V6.637c0-1.621-1.152-3.026-2.76-3.235A48.455 48.455 0 0 0 11.25 3c-2.115 0-4.198.137-6.24.402-1.608.209-2.76 1.614-2.76 3.235v6.226c0 1.621 1.152 3.026 2.76 3.235.577.075 1.157.14 1.74.194V21l4.155-4.155"
	/>
  </symbol>

  <symbol id="check" viewBox="0 0 24 24" fill="none" stroke="currentColor">
    <path stroke-linecap="round" stroke-linejoin="round" d="m4.5 12.75 6 6 9-13.5" />
  </symbol>

  <symbol id="check-box" viewBox="0 0 24 24" fill="none" stroke="currentColor">
    <path
		d="M3 20.4V3.6C3 3.26863 3.26863 3 3.6 3H20.4C20.7314 3 21 3.26863 21 3.6V20.4C21 20.7314 20.7314 21 20.4 21H3.6C3.26863 21 3 20.7314 3 20.4Z"
		style="stroke-width: 1.5"
	></path><path
		d="M7 12.5L10 15.5L17 8.5"
		style="stroke-width: 1.5"
		stroke-linecap="round"
		stroke-linejoin="round"
	></path>
  </symbol>

  <symbol id="chevron-down" viewBox="0 0 24 24" fill="none" stroke="currentColor">
    <path stroke-linecap="round" stroke-linejoin="round" d="m19.5 8.25-7.5 7.5-7.5-7.5" />
  </symbol>

  <symbol id="chevron-left" viewBox="0 0 24 24" fill="none" stroke="currentColor">
    <path stroke-linecap="round" stroke-linejoin="round" d="M15.75 19.5 8.25 12l7.5-7.5" />
  </symbol>

  <symbol id="chevron-right" viewBox="0 0 24 24" fill="none" stroke="currentColor">
    <path stroke-linecap="round" stroke-linejoin="round" d="m8.25 4.5 7.5 7.5-7.5 7.5" />
  </symbol>

  <symbol id="chevron-up" viewBox="0 0 24 24" fill="none" stroke="currentColor">
    <path stroke-linecap="round" stroke-linejoin="round" d="m4.5 15.75 7.5-7.5 7.5 7.5" />
  </symbol>

  <symbol id="chevron-up-down" viewBox="0 0 24 24" fill="none" stroke="currentColor">
    <path
		stroke-linecap="round"
		stroke-linejoin="round"
		d="M8.25 15 12 18.75 15.75 15m-7.5-6L12 5.25 15.75 9"
	/>
  </symbol>

  <symbol id="clipboard" viewBox="0 0 24 24" fill="none" stroke="currentColor">
    <path
		stroke-linecap="round"
		stroke-linejoin="round"
		d="M15.666 3.888A2.25 2.25 0 0 0 13.5 2.25h-3c-1.03 0-1.9.693-2.166 1.638m7.332 0c.055.194.084.4.084.612v0a.75.75 0 0 1-.75.75H9a.75.75 0 0 1-.75-.75v0c0-.212.03-.418.084-.612m7.332 0c.646.049 1.288.11 1.927.184 1.1.128 1.907 1.077 1.907 2.185V19.5a2.25 2.25 0 0 1-2.25 2.25H6.75A2.25 2.25 0 0 1 4.5 19.5V6.257c0-1.108.806-2.057 1.907-2.185a48.208 48.208 0 0 1 1.927-.184"
	/>
  </symbol>

  <symbol id="cloud-arrow-up" viewBox="0 0 24 24" fill="none" stroke="currentColor">
    <path
		stroke-linecap="round"
		stroke-linejoin="round"
		d="M12 16.5V9.75m0 0 3 3m-3-3-3 3M6.75 19.5a4.5 4.5 0 0 1-1.41-8.775 5.25 5.25 0 0 1 10.233-2.33 3 3 0 0 1 3.758 3.848A3.752 3.752 0 0 1 18 19.5H6.75Z"
	/>
  </symbol>

  <symbol id="code" viewBox="0 0 24 24" fill="none" stroke="currentColor">
    <path
		stroke-linecap="round"
		stroke-linejoin="round"
		d="M14.25 9.75 16.5 12l-2.25 2.25m-4.5 0L7.5 12l2.25-2.25M6 20.25h12A2.25 2.25 0 0 0 20.25 18V6A2.25 2.25 0 0 0 18 3.75H6A2.25 2.25 0 0 0 3.75 6v12A2.25 2.25 0 0 0 6 20.25Z"
	/>
  </symbol>

  <symbol id="code-bracket" viewBox="0 0 24 24" fill="none" stroke="currentColor">
    <path
		stroke-linecap="round"
		stroke-linejoin="round"
		d="M17.25 6.75 22.5 12l-5.25 5.25m-10.5 0L1.5 12l5.25-5.25m7.5-3-4.5 16.5"
	/>
  </symbol>

  <symbol id="cog6" viewBox="0 0 24 24" fill="none" stroke="currentColor">
    <path
		stroke-linecap="round"
		stroke-linejoin="round"
		d="M9.594 3.94c.09-.542.56-.94 1.11-.94h2.593c.55 0 1.02.398 1.11.94l.213 1.281c.063.374.313.686.645.87.074.04.147.083.22.127.325.196.72.257 1.075.124l1.217-.456a1.125 1.125 0 0 1 1.37.49l1.296 2.247a1.125 1.125 0 0 1-.26 1.431l-1.003.827c-.293.241-.438.613-.43.992a7.723 7.723 0 0 1 0 .255c-.008.378.137.75.43.991l1.004.827c.424.35.534.955.26 1.43l-1.298 2.247a1.125 1.125 0 0 1-1.369.491l-1.217-.456c-.355-.133-.75-.072-1.076.124a6.47 6.47 0 0 1-.22.128c-.331.183-.581.495-.644.869l-.213 1.281c-.09.543-.56.94-1.11.94h-2.594c-.55 0-1.019-.398-1.11-.94l-.213-1.281c-.062-.374-.312-.686-.644-.87a6.52 6.52 0 0 1-.22-.127c-.325-.196-.72-.257-1.076-.124l-1.217.456a1.125 1.125 0 0 1-1.369-.49l-1.297-2.247a1.125 1.125 0 0 1 .26-1.431l1.004-.827c.292-.24.437-.613.43-.991a6.932 6.932 0 0 1 0-.255c.007-.38-.138-.751-.43-.992l-1.004-.827a1.125 1.125 0 0 1-.26-1.43l1.297-2.247a1.125 1.125 0 0 1 1.37-.491l1.216.456c.356.133.751.072 1.076-.124.072-.044.146-.086.22-.128.332-.183.582-.495.644-.869l.214-1.28Z"
	/>
	<path stroke-linecap="round" stroke-linejoin="round" d="M15 12a3 3 0 1 1-6 0 3 3 0 0 1 6 0Z" />
  </symbol>

  <symbol id="command-line" viewBox="0 0 24 24" fill="none" stroke="currentColor">
    <path
		stroke-linecap="round"
		stroke-linejoin="round"
		d="m6.75 7.5 3 2.25-3 2.25m4.5 0h3m-9 8.25h13.5A2.25 2.25 0 0 0 21 18V6a2.25 2.25 0 0 0-2.25-2.25H5.25A2.25 2.25 0 0 0 3 6v12a2.25 2.25 0 0 0 2.25 2.25Z"
	/>
  </symbol>

  <symbol id="command-line-solid" viewBox="0 0 24 24" fill="currentColor">
    <path
		fill-rule="evenodd"
		d="M2.25 6a3 3 0 0 1 3-3h13.5a3 3 0 0 1 3 3v12a3 3 0 0 1-3 3H5.25a3 3 0 0 1-3-3V6Zm3.97.97a.75.75 0 0 1 1.06 0l2.25 2.25a.75.75 0 0 1 0 1.06l-2.25 2.25a.75.75 0 0 1-1.06-1.06l1.72-1.72-1.72-1.72a.75.75 0 0 1 0-1.06Zm4.28 4.28a.75.75 0 0 0 0 1.5h3a.75.75 0 0 0 0-1.5h-3Z"
		clip-rule="evenodd"
	/>
  </symbol>

  <symbol id="cube" viewBox="0 0 24 24" fill="none" stroke="currentColor">
    <path
		stroke-linecap="round"
		stroke-linejoin="round"
		d="m21 7.5-9-5.25L3 7.5m18 0-9 5.25m9-5.25v9l-9 5.25M3 7.5l9 5.25M3 7.5v9l9 5.25m0-9v9"
	/>
  </symbol>

  <symbol id="cursor-arrow-rays" viewBox="0 0 24 24" fill="none" stroke="currentColor">
    <path
		stroke-linecap="round"
		stroke-linejoin="round"
		d="M15.042 21.672 13.684 16.6m0 0-2.51 2.225.569-9.47 5.227 7.917-3.286-.672ZM12 2.25V4.5m5.834.166-1.591 1.591M20.25 10.5H18M7.757 14.743l-1.59 1.59M6 10.5H3.75m4.007-4.243-1.59-1.59"
	/>
  </symbol>

  <symbol id="document" viewBox="0 0 24 24" fill="none" stroke="currentColor">
    <path
		stroke-linecap="round"
		stroke-linejoin="round"
		d="M19.5 14.25v-2.625a3.375 3.375 0 0 0-3.375-3.375h-1.5A1.125 1.125 0 0 1 13.5 7.125v-1.5a3.375 3.375 0 0 0-3.375-3.375H8.25m2.25 0H5.625c-.621 0-1.125.504-1.125 1.125v17.25c0 .621.504 1.125 1.125 1.125h12.75c.621 0 1.125-.504 1.125-1.125V11.25a9 9 0 0 0-9-9Z"
	/>
  </symbol>

  <symbol id="document-arrow-up" viewBox="0 0 24 24" fill="none" stroke="currentColor">
    <path
		stroke-linecap="round"
		stroke-linejoin="round"
		d="M19.5 14.25v-2.625a3.375 3.375 0 0 0-3.375-3.375h-1.5A1.125 1.125 0 0 1 13.5 7.125v-1.5a3.375 3.375 0 0 0-3.375-3.375H8.25m6.75 12-3-3m0 0-3 3m3-3v6m-1.5-15H5.625c-.621 0-1.125.504-1.125 1.125v17.25c0 .621.504 1.125 1.125 1.125h12.75c.621 0 1.125-.504 1.125-1.125V11.25a9 9 0 0 0-9-9Z"
	/>
  </symbol>

  <symbol id="document-arrow-up-solid" viewBox="0 0 24 24" fill="currentColor">
    <path
		fill-rule="evenodd"
		d="M5.625 1.5H9a3.75 3.75 0 0 1 3.75 3.75v1.875c0 1.036.84 1.875 1.875 1.875H16.5a3.75 3.75 0 0 1 3.75 3.75v7.875c0 1.035-.84 1.875-1.875 1.875H5.625a1.875 1.875 0 0 1-1.875-1.875V3.375c0-1.036.84-1.875 1.875-1.875Zm6.905 9.97a.75.75 0 0 0-1.06 0l-3 3a.75.75 0 1 0 1.06 1.06l1.72-1.72V18a.75.75 0 0 0 1.5 0v-4.19l1.72 1.72a.75.75 0 1 0 1.06-1.06l-3-3Z"
		clip-rule="evenodd"
	/>
	<path
		d="M14.25 5.25a5.23 5.23 0 0 0-1.279-3.434 9.768 9.768 0 0 1 6.963 6.963A5.23 5.23 0 0 0 16.5 7.5h-1.875a.375.375 0 0 1-.375-.375V5.25Z"
	/>
  </symbol>

  <symbol id="document-chart-bar" viewBox="0 0 24 24" fill="currentColor">
    <path
		fill-rule="evenodd"
		d="M5.625 1.5H9a3.75 3.75 0 0 1 3.75 3.75v1.875c0 1.036.84 1.875 1.875 1.875H16.5a3.75 3.75 0 0 1 3.75 3.75v7.875c0 1.035-.84 1.875-1.875 1.875H5.625a1.875 1.875 0 0 1-1.875-1.875V3.375c0-1.036.84-1.875 1.875-1.875ZM9.75 17.25a.75.75 0 0 0-1.5 0V18a.75.75 0 0 0 1.5 0v-.75Zm2.25-3a.75.75 0 0 1 .75.75v3a.75.75 0 0 1-1.5 0v-3a.75.75 0 0 1 .75-.75Zm3.75-1.5a.75.75 0 0 0-1.5 0V18a.75.75 0 0 0 1.5 0v-5.25Z"
		clip-rule="evenodd"
	/>
	<path
		d="M14.25 5.25a5.23 5.23 0 0 0-1.279-3.434 9.768 9.768 0 0 1 6.963 6.963A5.23 5.23 0 0 0 16.5 7.5h-1.875a.375.375 0 0 1-.375-.375V5.25Z"
	/>
  </symbol>

  <symbol id="document-duplicate" viewBox="0 0 24 24" fill="none" stroke="currentColor">
    <path
		stroke-linecap="round"
		stroke-linejoin="round"
		d="M15.75 17.25v3.375c0 .621-.504 1.125-1.125 1.125h-9.75a1.125 1.125 0 0 1-1.125-1.125V7.875c0-.621.504-1.125 1.125-1.125H6.75a9.06 9.06 0 0 1 1.5.124m7.5 10.376h3.375c.621 0 1.125-.504 1.125-1.125V11.25c0-4.46-3.243-8.161-7.5-8.876a9.06 9.06 0 0 0-1.5-.124H9.375c-.621 0-1.125.504-1.125 1.125v3.5m7.5 10.375H9.375a1.125 1.125 0 0 1-1.125-1.125v-9.25m12 6.625v-1.875a3.375 3.375 0 0 0-3.375-3.375h-1.5a1.125 1.125 0 0 1-1.125-1.125v-1.5a3.375 3.375 0 0 0-3.375-3.375H9.75"
	/>
  </symbol>

  <symbol id="download" viewBox="0 0 24 24" fill="none" stroke="currentColor">
    <path
		stroke-linecap="round"
		stroke-linejoin="round"
		d="M3 16.5v2.25A2.25 2.25 0 0 0 5.25 21h13.5A2.25 2.25 0 0 0 21 18.75V16.5M16.5 12 12 16.5m0 0L7.5 12m4.5 4.5V3"
	/>
  </symbol>

  <symbol id="ellipsis-horizontal" viewBox="0 0 24 24" fill="none" stroke="currentColor">
    <path
		stroke-linecap="round"
		stroke-linejoin="round"
		d="M6.75 12a.75.75 0 1 1-1.5 0 .75.75 0 0 1 1.5 0ZM12.75 12a.75.75 0 1 1-1.5 0 .75.75 0 0 1 1.5 0ZM18.75 12a.75.75 0 1 1-1.5 0 .75.75 0 0 1 1.5 0Z"
	/>
  </symbol>

  <symbol id="ellipsis-vertical" viewBox="0 0 24 24" fill="none" stroke="currentColor">
    <path
		stroke-linecap="round"
		stroke-linejoin="round"
		d="M12 6.75a.75.75 0 1 1 0-1.5.75.75 0 0 1 0 1.5ZM12 12.75a.75.75 0 1 1 0-1.5.75.75 0 0 1 0 1.5ZM12 18.75a.75.75 0 1 1 0-1.5.75.75 0 0 1 0 1.5Z"
	/>
  </symbol>

  <symbol id="eye" viewBox="0 0 24 24" fill="none" stroke="currentColor">
    <path
		stroke-linecap="round"
		stroke-linejoin="round"
		d="M2.036 12.322a1.012 1.012 0 0 1 0-.639C3.423 7.51 7.36 4.5 12 4.5c4.638 0 8.573 3.007 9.963 7.178.07.207.07.431 0 .639C20.577 16.49 16.64 19.5 12 19.5c-4.638 0-8.573-3.007-9.963-7.178Z"
	/>
	<path stroke-linecap="round" stroke-linejoin="round" d="M15 12a3 3 0 1 1-6 0 3 3 0 0 1 6 0Z" />
  </symbol>

  <symbol id="eye-slash" viewBox="0 0 24 24" fill="none" stroke="currentColor">
    <path
		stroke-linecap="round"
		stroke-linejoin="round"
		d="M3.98 8.223A10.477 10.477 0 0 0 1.934 12C3.226 16.338 7.244 19.5 12 19.5c.993 0 1.953-.138 2.863-.395M6.228 6.228A10.451 10.451 0 0 1 12 4.5c4.756 0 8.773 3.162 10.065 7.498a10.522 10.522 0 0 1-4.293 5.774M6.228 6.228 3 3m3.228 3.228 3.65 3.65m7.894 7.894L21 21m-3.228-3.228-3.65-3.65m0 0a3 3 0 1 0-4.243-4.243m4.242 4.242L9.88 9.88"
	/>
  </symbol>

  <symbol id="face-smile" viewBox="0 0 24 24" fill="none" stroke="currentColor">
    <path
		stroke-linecap="round"
		stroke-linejoin="round"
		d="M15.182 15.182a4.5 4.5 0 0 1-6.364 0M21 12a9 9 0 1 1-18 0 9 9 0 0 1 18 0ZM9.75 9.75c0 .414-.168.75-.375.75S9 10.164 9 9.75 9.168 9 9.375 9s.375.336.375.75Zm-.375 0h.008v.015h-.008V9.75Zm5.625 0c0 .414-.168.75-.375.75s-.375-.336-.375-.75.168-.75.375-.75.375.336.375.75Zm-.375 0h.008v.015h-.008V9.75Z"
	/>
  </symbol>

  <symbol id="folder" viewBox="0 0 24 24" fill="none" stroke="currentColor">
    <path
		stroke-linecap="round"
		stroke-linejoin="round"
		d="M2.25 12.75V12A2.25 2.25 0 0 1 4.5 9.75h15A2.25 2.25 0 0 1 21.75 12v.75m-8.69-6.44-2.12-2.12a1.5 1.5 0 0 0-1.061-.44H4.5A2.25 2.25 0 0 0 2.25 6v12a2.25 2.25 0 0 0 2.25 2.25h15A2.25 2.25 0 0 0 21.75 18V9a2.25 2.25 0 0 0-2.25-2.25h-5.379a1.5 1.5 0 0 1-1.06-.44Z"
	/>
  </symbol>

  <symbol id="folder-open" viewBox="0 0 24 24" fill="none" stroke="currentColor">
    <path
		stroke-linecap="round"
		stroke-linejoin="round"
		d="M3.75 9.776c.112-.017.227-.026.344-.026h15.812c.117 0 .232.009.344.026m-16.5 0a2.25 2.25 0 0 0-1.883 2.542l.857 6a2.25 2.25 0 0 0 2.227 1.932H19.05a2.25 2.25 0 0 0 2.227-1.932l.857-6a2.25 2.25 0 0 0-1.883-2.542m-16.5 0V6A2.25 2.25 0 0 1 6 3.75h3.879a1.5 1.5 0 0 1 1.06.44l2.122 2.12a1.5 1.5 0 0 0 1.06.44H18A2.25 2.25 0 0 1 20.25 9v.776"
	/>
  </symbol>

  <symbol id="garbage-bin" viewBox="0 0 24 24" fill="none" stroke="currentColor">
    <path
		stroke-linecap="round"
		stroke-linejoin="round"
		d="M14.74 9l-.346 9m-4.788 0L9.26 9m9.968-3.21c.342.052.682.107 1.022.166m-1.022-.165L18.16 19.673a2.25 2.25 0 01-2.244 2.077H8.084a2.25 2.25 0 01-2.244-2.077L4.772 5.79m14.456 0a48.108 48.108 0 00-3.478-.397m-12 .562c.34-.059.68-.114 1.022-.165m0 0a48.11 48.11 0 013.478-.397m7.5 0v-.916c0-1.18-.91-2.164-2.09-2.201a51.964 51.964 0 00-3.32 0c-1.18.037-2.09 1.022-2.09 2.201v.916m7.5 0a48.667 48.667 0 00-7.5 0"
	/>
  </symbol>

  <symbol id="github" viewBox="0 0 24 24" fill="currentColor">
    <path
		fill-rule="evenodd"
		d="M12.006 2a9.847 9.847 0 0 0-6.484 2.44 10.32 10.32 0 0 0-3.393 6.17 10.48 10.48 0 0 0 1.317 6.955 10.045 10.045 0 0 0 5.4 4.418c.504.095.683-.223.683-.494 0-.245-.01-1.052-.014-1.908-2.78.62-3.366-1.21-3.366-1.21a2.711 2.711 0 0 0-1.11-1.5c-.907-.637.07-.621.07-.621.317.044.62.163.885.346.266.183.487.426.647.71.135.253.318.476.538.655a2.079 2.079 0 0 0 2.37.196c.045-.52.27-1.006.635-1.37-2.219-.259-4.554-1.138-4.554-5.07a4.022 4.022 0 0 1 1.031-2.75 3.77 3.77 0 0 1 .096-2.713s.839-.275 2.749 1.05a9.26 9.26 0 0 1 5.004 0c1.906-1.325 2.74-1.05 2.74-1.05.37.858.406 1.828.101 2.713a4.017 4.017 0 0 1 1.029 2.75c0 3.939-2.339 4.805-4.564 5.058a2.471 2.471 0 0 1 .679 1.897c0 1.372-.012 2.477-.012 2.814 0 .272.18.592.687.492a10.05 10.05 0 0 0 5.388-4.421 10.473 10.473 0 0 0 1.313-6.948 10.32 10.32 0 0 0-3.39-6.165A9.847 9.847 0 0 0 12.007 2Z"
		clip-rule="evenodd"
	/>
  </symbol>

  <symbol id="globe-alt" viewBox="0 0 24 24" fill="none" stroke="currentColor">
    <path
		stroke-linecap="round"
		stroke-linejoin="round"
		d="M12 21a9.004 9.004 0 0 0 8.716-6.747M12 21a9.004 9.004 0 0 1-8.716-6.747M12 21c2.485 0 4.5-4.03 4.5-9S14.485 3 12 3m0 18c-2.485 0-4.5-4.03-4.5-9S9.515 3 12 3m0 0a8.997 8.997 0 0 1 7.843 4.582M12 3a8.997 8.997 0 0 0-7.843 4.582m15.686 0A11.953 11.953 0 0 1 12 10.5c-2.998 0-5.74-1.1-7.843-2.918m15.686 0A8.959 8.959 0 0 1 21 12c0 .778-.099 1.533-.284 2.253m0 0A17.919 17.919 0 0 1 12 16.5c-3.162 0-6.133-.815-8.716-2.247m0 0A9.015 9.015 0 0 1 3 12c0-1.605.42-3.113 1.157-4.418"
	/>
  </symbol>

  <symbol id="globe-alt-solid" viewBox="0 0 24 24" fill="currentColor">
    <path
		d="M21.721 12.752a9.711 9.711 0 0 0-.945-5.003 12.754 12.754 0 0 1-4.339 2.708 18.991 18.991 0 0 1-.214 4.772 17.165 17.165 0 0 0 5.498-2.477ZM14.634 15.55a17.324 17.324 0 0 0 .332-4.647c-.952.227-1.945.347-2.966.347-1.021 0-2.014-.12-2.966-.347a17.515 17.515 0 0 0 .332 4.647 17.385 17.385 0 0 0 5.268 0ZM9.772 17.119a18.963 18.963 0 0 0 4.456 0A17.182 17.182 0 0 1 12 21.724a17.18 17.18 0 0 1-2.228-4.605ZM7.777 15.23a18.87 18.87 0 0 1-.214-4.774 12.753 12.753 0 0 1-4.34-2.708 9.711 9.711 0 0 0-.944 5.004 17.165 17.165 0 0 0 5.498 2.477ZM21.356 14.752a9.765 9.765 0 0 1-7.478 6.817 18.64 18.64 0 0 0 1.988-4.718 18.627 18.627 0 0 0 5.49-2.098ZM2.644 14.752c1.682.971 3.53 1.688 5.49 2.099a18.64 18.64 0 0 0 1.988 4.718 9.765 9.765 0 0 1-7.478-6.816ZM13.878 2.43a9.755 9.755 0 0 1 6.116 3.986 11.267 11.267 0 0 1-3.746 2.504 18.63 18.63 0 0 0-2.37-6.49ZM12 2.276a17.152 17.152 0 0 1 2.805 7.121c-.897.23-1.837.353-2.805.353-.968 0-1.908-.122-2.805-.353A17.151 17.151 0 0 1 12 2.276ZM10.122 2.43a18.629 18.629 0 0 0-2.37 6.49 11.266 11.266 0 0 1-3.746-2.504 9.754 9.754 0 0 1 6.116-3.985Z"
	/>
  </symbol>

  <symbol id="h1" viewBox="0 0 24 24" fill="none" stroke="currentColor">
    <path
		stroke-linecap="round"
		stroke-linejoin="round"
		d="M2.243 4.493v7.5m0 0v7.502m0-7.501h10.5m0-7.5v7.5m0 0v7.501m4.501-8.627 2.25-1.5v10.126m0 0h-2.25m2.25 0h2.25"
	/>
  </symbol>

  <symbol id="h2" viewBox="0 0 24 24" fill="none" stroke="currentColor">
    <path
		stroke-linecap="round"
		stroke-linejoin="round"
		d="M21.75 19.5H16.5v-1.609a2.25 2.25 0 0 1 1.244-2.012l2.89-1.445c.651-.326 1.116-.955 1.116-1.683 0-.498-.04-.987-.118-1.463-.135-.825-.835-1.422-1.668-1.489a15.202 15.202 0 0 0-3.464.12M2.243 4.492v7.5m0 0v7.502m0-7.501h10.5m0-7.5v7.5m0 0v7.501"
	/>
  </symbol>

  <symbol id="h3" viewBox="0 0 24 24" fill="none" stroke="currentColor">
    <path
		stroke-linecap="round"
		stroke-linejoin="round"
		d="M20.905 14.626a4.52 4.52 0 0 1 .738 3.603c-.154.695-.794 1.143-1.504 1.208a15.194 15.194 0 0 1-3.639-.104m4.405-4.707a4.52 4.52 0 0 0 .738-3.603c-.154-.696-.794-1.144-1.504-1.209a15.19 15.19 0 0 0-3.639.104m4.405 4.708H18M2.243 4.493v7.5m0 0v7.502m0-7.501h10.5m0-7.5v7.5m0 0v7.501"
	/>
  </symbol>

  <symbol id="headphone" viewBox="0 0 24 24" fill="currentColor" stroke="currentColor">
    <path
		fill-rule="evenodd"
		d="M12 5a7 7 0 0 0-7 7v1.17c.313-.11.65-.17 1-.17h2a1 1 0 0 1 1 1v6a1 1 0 0 1-1 1H6a3 3 0 0 1-3-3v-6a9 9 0 0 1 18 0v6a3 3 0 0 1-3 3h-2a1 1 0 0 1-1-1v-6a1 1 0 0 1 1-1h2c.35 0 .687.06 1 .17V12a7 7 0 0 0-7-7Z"
		clip-rule="evenodd"
	/>
  </symbol>

  <symbol id="heart" viewBox="0 0 24 24" fill="none" stroke="currentColor">
    <path
		stroke-linecap="round"
		stroke-linejoin="round"
		d="M21 8.25c0-2.485-2.099-4.5-4.688-4.5-1.935 0-3.597 1.126-4.312 2.733-.715-1.607-2.377-2.733-4.313-2.733C5.1 3.75 3 5.765 3 8.25c0 7.22 9 12 9 12s9-4.78 9-12Z"
	/>
  </symbol>

  <symbol id="home" viewBox="0 0 22 22" fill="none" stroke="currentColor">
    <path
		stroke-linecap="round"
		stroke-linejoin="round"
		d="m4 12 8-8 8 8M6 10.5V19a1 1 0 0 0 1 1h3v-3a1 1 0 0 1 1-1h2a1 1 0 0 1 1 1v3h3a1 1 0 0 0 1-1v-8.5"
	/>
  </symbol>

  <symbol id="info" viewBox="0 0 24 24" fill="none" stroke="currentColor">
    <path
		stroke-linecap="round"
		stroke-linejoin="round"
		d="m11.25 11.25.041-.02a.75.75 0 0 1 1.063.852l-.708 2.836a.75.75 0 0 0 1.063.853l.041-.021M21 12a9 9 0 1 1-18 0 9 9 0 0 1 18 0Zm-9-3.75h.008v.008H12V8.25Z"
	/>
  </symbol>

  <symbol id="italic" viewBox="0 0 24 24" fill="none" stroke="currentColor">
    <path
		stroke-linecap="round"
		stroke-linejoin="round"
		d="M5.248 20.246H9.05m0 0h3.696m-3.696 0 5.893-16.502m0 0h-3.697m3.697 0h3.803"
	/>
  </symbol>

  <symbol id="keyboard" viewBox="0 0 24 24" fill="currentColor">
    <path
		fill-rule="evenodd"
		d="M2 7a2 2 0 0 1 2-2h16a2 2 0 0 1 2 2v10a2 2 0 0 1-2 2H4a2 2 0 0 1-2-2V7Zm5.01 1H5v2.01h2.01V8Zm3 0H8v2.01h2.01V8Zm3 0H11v2.01h2.01V8Zm3 0H14v2.01h2.01V8Zm3 0H17v2.01h2.01V8Zm-12 3H5v2.01h2.01V11Zm3 0H8v2.01h2.01V11Zm3 0H11v2.01h2.01V11Zm3 0H14v2.01h2.01V11Zm3 0H17v2.01h2.01V11Zm-12 3H5v2.01h2.01V14ZM8 14l-.001 2 8.011.01V14H8Zm11.01 0H17v2.01h2.01V14Z"
		clip-rule="evenodd"
	/>
  </symbol>

  <symbol id="light-bulb" viewBox="0 0 24 24" fill="none" stroke="currentColor">
    <path
		stroke-linecap="round"
		stroke-linejoin="round"
		d="M12 18v-5.25m0 0a6.01 6.01 0 0 0 1.5-.189m-1.5.189a6.01 6.01 0 0 1-1.5-.189m3.75 7.478a12.06 12.06 0 0 1-4.5 0m3.75 2.383a14.406 14.406 0 0 1-3 0M14.25 18v-.192c0-.983.658-1.823 1.508-2.316a7.5 7.5 0 1 0-7.517 0c.85.493 1.509 1.333 1.509 2.316V18"
	/>
  </symbol>

  <symbol id="link" viewBox="0 0 16 16" fill="currentColor">
    <path
		fill-rule="evenodd"
		d="M8.914 6.025a.75.75 0 0 1 1.06 0 3.5 3.5 0 0 1 0 4.95l-2 2a3.5 3.5 0 0 1-5.396-4.402.75.75 0 0 1 1.251.827 2 2 0 0 0 3.085 2.514l2-2a2 2 0 0 0 0-2.828.75.75 0 0 1 0-1.06Z"
		clip-rule="evenodd"
	/>
	<path
		fill-rule="evenodd"
		d="M7.086 9.975a.75.75 0 0 1-1.06 0 3.5 3.5 0 0 1 0-4.95l2-2a3.5 3.5 0 0 1 5.396 4.402.75.75 0 0 1-1.251-.827 2 2 0 0 0-3.085-2.514l-2 2a2 2 0 0 0 0 2.828.75.75 0 0 1 0 1.06Z"
		clip-rule="evenodd"
	/>
  </symbol>

  <symbol id="list-bullet" viewBox="0 0 24 24" fill="none" stroke="currentColor">
    <path
		stroke-linecap="round"
		stroke-linejoin="round"
		d="M8.25 6.75h12M8.25 12h12m-12 5.25h12M3.75 6.75h.007v.008H3.75V6.75Zm.375 0a.375.375 0 1 1-.75 0 .375.375 0 0 1 .75 0ZM3.75 12h.007v.008H3.75V12Zm.375 0a.375.375 0 1 1-.75 0 .375.375 0 0 1 .75 0Zm-.375 5.25h.007v.008H3.75v-.008Zm.375 0a.375.375 0 1 1-.75 0 .375.375 0 0 1 .75 0Z"
	/>
  </symbol>

  <symbol id="lock-closed" viewBox="0 0 24 24" fill="none" stroke="currentColor">
    <path
		stroke-linecap="round"
		stroke-linejoin="round"
		d="M16.5 10.5V6.75a4.5 4.5 0 1 0-9 0v3.75m-.75 11.25h10.5a2.25 2.25 0 0 0 2.25-2.25v-6.75a2.25 2.25 0 0 0-2.25-2.25H6.75a2.25 2.25 0 0 0-2.25 2.25v6.75a2.25 2.25 0 0 0 2.25 2.25Z"
	/>
  </symbol>

  <symbol id="map" viewBox="0 0 24 24" fill="none" stroke="currentColor">
    <path
		stroke-linecap="round"
		stroke-linejoin="round"
		d="M9 6.75V15m6-6v8.25m.503 3.498 4.875-2.437c.381-.19.622-.58.622-1.006V4.82c0-.836-.88-1.38-1.628-1.006l-3.869 1.934c-.317.159-.69.159-1.006 0L9.503 3.252a1.125 1.125 0 0 0-1.006 0L3.622 5.689C3.24 5.88 3 6.27 3 6.695V19.18c0 .836.88 1.38 1.628 1.006l3.869-1.934c.317-.159.69-.159 1.006 0l4.994 2.497c.317.158.69.158 1.006 0Z"
	/>
  </symbol>

  <symbol id="menu-lines" viewBox="0 0 24 24" fill="none" stroke="currentColor">
    <path
		stroke-linecap="round"
		stroke-linejoin="round"
		d="M3.75 6.75h16.5M3.75 12h16.5m-16.5 5.25H12"
	/>
  </symbol>

  <symbol id="merge" viewBox="0 0 24 24" fill="none" stroke="currentColor">
    <path
		stroke-linecap="round"
		stroke-linejoin="round"
		d="M8 8v8m0-8a2 2 0 1 0 0-4 2 2 0 0 0 0 4Zm0 8a2 2 0 1 0 0 4 2 2 0 0 0 0-4Zm6-2a2 2 0 1 1 4 0 2 2 0 0 1-4 0Zm0 0h-1a5 5 0 0 1-5-5v-.5"
	/>
  </symbol>

  <symbol id="mic" viewBox="0 0 24 24" fill="none" stroke="currentColor">
    <path
		stroke-linecap="round"
		stroke-linejoin="round"
		d="M12 18.75a6 6 0 0 0 6-6v-1.5m-6 7.5a6 6 0 0 1-6-6v-1.5m6 7.5v3.75m-3.75 0h7.5M12 15.75a3 3 0 0 1-3-3V4.5a3 3 0 1 1 6 0v8.25a3 3 0 0 1-3 3Z"
	/>
  </symbol>

  <symbol id="mic-solid" viewBox="0 0 20 20" fill="currentColor">
    <path d="M7 4a3 3 0 0 1 6 0v6a3 3 0 1 1-6 0V4Z" />
	<path
		d="M5.5 9.643a.75.75 0 0 0-1.5 0V10c0 3.06 2.29 5.585 5.25 5.954V17.5h-1.5a.75.75 0 0 0 0 1.5h4.5a.75.75 0 0 0 0-1.5h-1.5v-1.546A6.001 6.001 0 0 0 16 10v-.357a.75.75 0 0 0-1.5 0V10a4.5 4.5 0 0 1-9 0v-.357Z"
	/>
  </symbol>

  <symbol id="minus" viewBox="0 0 24 24" fill="none" stroke="currentColor">
    <path stroke-linecap="round" stroke-linejoin="round" d="M5 12h14" />
  </symbol>

  <symbol id="numbered-list" viewBox="0 0 24 24" fill="none" stroke="currentColor">
    <path
		stroke-linecap="round"
		stroke-linejoin="round"
		d="M8.242 5.992h12m-12 6.003H20.24m-12 5.999h12M4.117 7.495v-3.75H2.99m1.125 3.75H2.99m1.125 0H5.24m-1.92 2.577a1.125 1.125 0 1 1 1.591 1.59l-1.83 1.83h2.16M2.99 15.745h1.125a1.125 1.125 0 0 1 0 2.25H3.74m0-.002h.375a1.125 1.125 0 0 1 0 2.25H2.99"
	/>
  </symbol>

  <symbol id="pencil" viewBox="0 0 24 24" fill="none" stroke="currentColor">
    <path
		stroke-linecap="round"
		stroke-linejoin="round"
		d="M16.862 4.487l1.687-1.688a1.875 1.875 0 112.652 2.652L6.832 19.82a4.5 4.5 0 01-1.897 1.13l-2.685.8.8-2.685a4.5 4.5 0 011.13-1.897L16.863 4.487zm0 0L19.5 7.125"
	/>
  </symbol>

  <symbol id="pencil-solid" viewBox="0 0 24 24" fill="currentColor">
    <path
		d="M21.731 2.269a2.625 2.625 0 0 0-3.712 0l-1.157 1.157 3.712 3.712 1.157-1.157a2.625 2.625 0 0 0 0-3.712ZM19.513 8.199l-3.712-3.712-12.15 12.15a5.25 5.25 0 0 0-1.32 2.214l-.8 2.685a.75.75 0 0 0 .933.933l2.685-.8a5.25 5.25 0 0 0 2.214-1.32L19.513 8.2Z"
	/>
  </symbol>

  <symbol id="pencil-square" viewBox="0 0 24 24" fill="none" stroke="currentColor">
    <path
		stroke-linecap="round"
		stroke-linejoin="round"
		d="m16.862 4.487 1.687-1.688a1.875 1.875 0 1 1 2.652 2.652L10.582 16.07a4.5 4.5 0 0 1-1.897 1.13L6 18l.8-2.685a4.5 4.5 0 0 1 1.13-1.897l8.932-8.931Zm0 0L19.5 7.125M18 14v4.75A2.25 2.25 0 0 1 15.75 21H5.25A2.25 2.25 0 0 1 3 18.75V8.25A2.25 2.25 0 0 1 5.25 6H10"
	/>
  </symbol>

  <symbol id="photo" viewBox="0 0 24 24" fill="none" stroke="currentColor">
    <path
		stroke-linecap="round"
		stroke-linejoin="round"
		style="stroke-width: 2"
		d="m3 16 5-7 6 6.5m6.5 2.5L16 13l-4.286 6M14 10h.01M4 19h16a1 1 0 0 0 1-1V6a1 1 0 0 0-1-1H4a1 1 0 0 0-1 1v12a1 1 0 0 0 1 1Z"
	/>
  </symbol>

  <symbol id="photo-solid" viewBox="0 0 24 24" fill="currentColor">
    <path
		fill-rule="evenodd"
		d="M1.5 6a2.25 2.25 0 0 1 2.25-2.25h16.5A2.25 2.25 0 0 1 22.5 6v12a2.25 2.25 0 0 1-2.25 2.25H3.75A2.25 2.25 0 0 1 1.5 18V6ZM3 16.06V18c0 .414.336.75.75.75h16.5A.75.75 0 0 0 21 18v-1.94l-2.69-2.689a1.5 1.5 0 0 0-2.12 0l-.88.879.97.97a.75.75 0 1 1-1.06 1.06l-5.16-5.159a1.5 1.5 0 0 0-2.12 0L3 16.061Zm10.125-7.81a1.125 1.125 0 1 1 2.25 0 1.125 1.125 0 0 1-2.25 0Z"
		clip-rule="evenodd"
	/>
  </symbol>

  <symbol id="plus" viewBox="0 0 24 24" fill="none" stroke="currentColor">
    <path stroke-linecap="round" stroke-linejoin="round" d="M12 4.5v15m7.5-7.5h-15" />
  </symbol>

  <symbol id="question-mark-circle" viewBox="0 0 24 24" fill="none" stroke="currentColor">
    <path
		stroke-linecap="round"
		stroke-linejoin="round"
		d="M9.879 7.519c1.171-1.025 3.071-1.025 4.242 0 1.172 1.025 1.172 2.687 0 3.712-.203.179-.43.326-.67.442-.745.361-1.45.999-1.45 1.827v.75M21 12a9 9 0 1 1-18 0 9 9 0 0 1 18 0Zm-9 5.25h.008v.008H12v-.008Z"
	/>
  </symbol>

  <symbol id="reset" viewBox="0 0 24 24" fill="none" stroke="currentColor">
    <path
		stroke-linecap="round"
		stroke-linejoin="round"
		d="M16.023 9.348h4.992v-.001M2.985 19.644v-4.992m0 0h4.992m-4.993 0 3.181 3.183a8.25 8.25 0 0 0 13.803-3.7M4.031 9.865a8.25 8.25 0 0 1 13.803-3.7l3.181 3.182m0-4.991v4.99"
	/>
  </symbol>

  <symbol id="search" viewBox="0 0 24 24" fill="none" stroke="currentColor">
    <path
		stroke-linecap="round"
		stroke-linejoin="round"
		d="m21 21-5.197-5.197m0 0A7.5 7.5 0 1 0 5.196 5.196a7.5 7.5 0 0 0 10.607 10.607Z"
	/>
  </symbol>

  <symbol id="settings" viewBox="0 0 24 24" fill="none" stroke="currentColor">
    <path
		stroke-linecap="round"
		stroke-linejoin="round"
		d="M10.343 3.94c.09-.542.56-.94 1.11-.94h1.093c.55 0 1.02.398 1.11.94l.149.894c.07.424.384.764.78.93.398.164.855.142 1.205-.108l.737-.527a1.125 1.125 0 011.45.12l.773.774c.39.389.44 1.002.12 1.45l-.527.737c-.25.35-.272.806-.107 1.204.165.397.505.71.93.78l.893.15c.543.09.94.56.94 1.109v1.094c0 .55-.397 1.02-.94 1.11l-.893.149c-.425.07-.765.383-.93.78-.165.398-.143.854.107 1.204l.527.738c.32.447.269 1.06-.12 1.45l-.774.773a1.125 1.125 0 01-1.449.12l-.738-.527c-.35-.25-.806-.272-1.203-.107-.397.165-.71.505-.781.929l-.149.894c-.09.542-.56.94-1.11.94h-1.094c-.55 0-1.019-.398-1.11-.94l-.148-.894c-.071-.424-.384-.764-.781-.93-.398-.164-.854-.142-1.204.108l-.738.527c-.447.32-1.06.269-1.45-.12l-.773-.774a1.125 1.125 0 01-.12-1.45l.527-.737c.25-.35.273-.806.108-1.204-.165-.397-.505-.71-.93-.78l-.894-.15c-.542-.09-.94-.56-.94-1.109v-1.094c0-.55.398-1.02.94-1.11l.894-.149c.424-.07.765-.383.93-.78.165-.398.143-.854-.107-1.204l-.527-.738a1.125 1.125 0 01.12-1.45l.773-.773a1.125 1.125 0 011.45-.12l.737.527c.35.25.807.272 1.204.107.397-.165.71-.505.78-.929l.15-.894z"
	/>
	<path stroke-linecap="round" stroke-linejoin="round" d="M15 12a3 3 0 11-6 0 3 3 0 016 0z" />
  </symbol>

  <symbol id="share" viewBox="0 0 24 24" fill="currentColor">
    <path
		fill-rule="evenodd"
		d="M15.75 4.5a3 3 0 1 1 .825 2.066l-8.421 4.679a3.002 3.002 0 0 1 0 1.51l8.421 4.679a3 3 0 1 1-.729 1.31l-8.421-4.678a3 3 0 1 1 0-4.132l8.421-4.679a3 3 0 0 1-.096-.755Z"
		clip-rule="evenodd"
	/>
  </symbol>

  <symbol id="sign-out" viewBox="0 0 20 20" fill="currentColor">
    <path
		fill-rule="evenodd"
		d="M3 4.25A2.25 2.25 0 015.25 2h5.5A2.25 2.25 0 0113 4.25v2a.75.75 0 01-1.5 0v-2a.75.75 0 00-.75-.75h-5.5a.75.75 0 00-.75.75v11.5c0 .414.336.75.75.75h5.5a.75.75 0 00.75-.75v-2a.75.75 0 011.5 0v2A2.25 2.25 0 0110.75 18h-5.5A2.25 2.25 0 013 15.75V4.25z"
		clip-rule="evenodd"
		aria-hidden="true"
	/>
	<path
		fill-rule="evenodd"
		d="M6 10a.75.75 0 01.75-.75h9.546l-1.048-.943a.75.75 0 111.004-1.114l2.5 2.25a.75.75 0 010 1.114l-2.5 2.25a.75.75 0 11-1.004-1.114l1.048-.943H6.75A.75.75 0 016 10z"
		clip-rule="evenodd"
	/>
  </symbol>

  <symbol id="sparkles" viewBox="0 0 24 24" fill="none" stroke="currentColor">
    <path
		stroke-linecap="round"
		stroke-linejoin="round"
		d="M9.813 15.904 9 18.75l-.813-2.846a4.5 4.5 0 0 0-3.09-3.09L2.25 12l2.846-.813a4.5 4.5 0 0 0 3.09-3.09L9 5.25l.813 2.846a4.5 4.5 0 0 0 3.09 3.09L15.75 12l-2.846.813a4.5 4.5 0 0 0-3.09 3.09ZM18.259 8.715 18 9.75l-.259-1.035a3.375 3.375 0 0 0-2.455-2.456L14.25 6l1.036-.259a3.375 3.375 0 0 0 2.455-2.456L18 2.25l.259 1.035a3.375 3.375 0 0 0 2.456 2.456L21.75 6l-1.035.259a3.375 3.375 0 0 0-2.456 2.456ZM16.894 20.567 16.5 21.75l-.394-1.183a2.25 2.25 0 0 0-1.423-1.423L13.5 18.75l1.183-.394a2.25 2.25 0 0 0 1.423-1.423l.394-1.183.394 1.183a2.25 2.25 0 0 0 1.423 1.423l1.183.394-1.183.394a2.25 2.25 0 0 0-1.423 1.423Z"
	/>
  </symbol>

  <symbol id="sparkles-solid" viewBox="0 0 24 24" fill="currentColor">
    <path
		fill-rule="evenodd"
		d="M9 4.5a.75.75 0 0 1 .721.544l.813 2.846a3.75 3.75 0 0 0 2.576 2.576l2.846.813a.75.75 0 0 1 0 1.442l-2.846.813a3.75 3.75 0 0 0-2.576 2.576l-.813 2.846a.75.75 0 0 1-1.442 0l-.813-2.846a3.75 3.75 0 0 0-2.576-2.576l-2.846-.813a.75.75 0 0 1 0-1.442l2.846-.813A3.75 3.75 0 0 0 7.466 7.89l.813-2.846A.75.75 0 0 1 9 4.5ZM18 1.5a.75.75 0 0 1 .728.568l.258 1.036c.236.94.97 1.674 1.91 1.91l1.036.258a.75.75 0 0 1 0 1.456l-1.036.258c-.94.236-1.674.97-1.91 1.91l-.258 1.036a.75.75 0 0 1-1.456 0l-.258-1.036a2.625 2.625 0 0 0-1.91-1.91l-1.036-.258a.75.75 0 0 1 0-1.456l1.036-.258a2.625 2.625 0 0 0 1.91-1.91l.258-1.036A.75.75 0 0 1 18 1.5ZM16.5 15a.75.75 0 0 1 .712.513l.394 1.183c.15.447.5.799.948.948l1.183.395a.75.75 0 0 1 0 1.422l-1.183.395c-.447.15-.799.5-.948.948l-.395 1.183a.75.75 0 0 1-1.422 0l-.395-1.183a1.5 1.5 0 0 0-.948-.948l-1.183-.395a.75.75 0 0 1 0-1.422l1.183-.395c.447-.15.799-.5.948-.948l.395-1.183A.75.75 0 0 1 16.5 15Z"
		clip-rule="evenodd"
	/>
  </symbol>

  <symbol id="star" viewBox="0 0 24 24" fill="none" stroke="currentColor">
    <path
		stroke-linecap="round"
		stroke-linejoin="round"
		d="M11.48 3.499a.562.562 0 0 1 1.04 0l2.125 5.111a.563.563 0 0 0 .475.345l5.518.442c.499.04.701.663.321.988l-4.204 3.602a.563.563 0 0 0-.182.557l1.285 5.385a.562.562 0 0 1-.84.61l-4.725-2.885a.562.562 0 0 0-.586 0L6.982 20.54a.562.562 0 0 1-.84-.61l1.285-5.386a.562.562 0 0 0-.182-.557l-4.204-3.602a.562.562 0 0 1 .321-.988l5.518-.442a.563.563 0 0 0 .475-.345L11.48 3.5Z"
	/>
  </symbol>

  <symbol id="strikethrough" viewBox="0 0 24 24" fill="none" stroke="currentColor">
    <path
		stroke-linecap="round"
		stroke-linejoin="round"
		d="M12 12a8.912 8.912 0 0 1-.318-.079c-1.585-.424-2.904-1.247-3.76-2.236-.873-1.009-1.265-2.19-.968-3.301.59-2.2 3.663-3.29 6.863-2.432A8.186 8.186 0 0 1 16.5 5.21M6.42 17.81c.857.99 2.176 1.812 3.761 2.237 3.2.858 6.274-.23 6.863-2.431.233-.868.044-1.779-.465-2.617M3.75 12h16.5"
	/>
  </symbol>

  <symbol id="underline" viewBox="0 0 24 24" fill="none" stroke="currentColor">
    <path
		stroke-linecap="round"
		stroke-linejoin="round"
		d="M17.995 3.744v7.5a6 6 0 1 1-12 0v-7.5m-2.25 16.502h16.5"
	/>
  </symbol>

  <symbol id="user" viewBox="0 0 24 24" fill="currentColor">
    <path
		fill-rule="evenodd"
		d="M7.5 6a4.5 4.5 0 1 1 9 0 4.5 4.5 0 0 1-9 0ZM3.751 20.105a8.25 8.25 0 0 1 16.498 0 .75.75 0 0 1-.437.695A18.683 18.683 0 0 1 12 22.5c-2.786 0-5.433-.608-7.812-1.7a.75.75 0 0 1-.437-.695Z"
		clip-rule="evenodd"
	/>
  </symbol>

  <symbol id="user-circle-solid" viewBox="0 0 16 16" fill="currentColor">
    <path
		fill-rule="evenodd"
		d="M15 8A7 7 0 1 1 1 8a7 7 0 0 1 14 0Zm-5-2a2 2 0 1 1-4 0 2 2 0 0 1 4 0ZM8 9c-1.825 0-3.422.977-4.295 2.437A5.49 5.49 0 0 0 8 13.5a5.49 5.49 0 0 0 4.294-2.063A4.997 4.997 0 0 0 8 9Z"
		clip-rule="evenodd"
	/>
  </symbol>

  <symbol id="user-group" viewBox="0 0 24 24" fill="none" stroke="currentColor">
    <path
		stroke-linecap="round"
		stroke-linejoin="round"
		d="M17.982 18.725A7.488 7.488 0 0012 15.75a7.488 7.488 0 00-5.982 2.975m11.963 0a9 9 0 10-11.963 0m11.963 0A8.966 8.966 0 0112 21a8.966 8.966 0 01-5.982-2.275M15 9.75a3 3 0 11-6 0 3 3 0 016 0z"
	/>
  </symbol>

  <symbol id="user-plus-solid" viewBox="0 0 20 20" fill="currentColor">
    <path
		d="M10 5a3 3 0 1 1-6 0 3 3 0 0 1 6 0ZM1.615 16.428a1.224 1.224 0 0 1-.569-1.175 6.002 6.002 0 0 1 11.908 0c.058.467-.172.92-.57 1.174A9.953 9.953 0 0 1 7 18a9.953 9.953 0 0 1-5.385-1.572ZM16.25 5.75a.75.75 0 0 0-1.5 0v2h-2a.75.75 0 0 0 0 1.5h2v2a.75.75 0 0 0 1.5 0v-2h2a.75.75 0 0 0 0-1.5h-2v-2Z"
	/>
  </symbol>

  <symbol id="users" viewBox="0 0 24 24" fill="none" stroke="currentColor">
    <path
		stroke-linecap="round"
		stroke-linejoin="round"
		d="M15 19.128a9.38 9.38 0 0 0 2.625.372 9.337 9.337 0 0 0 4.121-.952 4.125 4.125 0 0 0-7.533-2.493M15 19.128v-.003c0-1.113-.285-2.16-.786-3.07M15 19.128v.106A12.318 12.318 0 0 1 8.624 21c-2.331 0-4.512-.645-6.374-1.766l-.001-.109a6.375 6.375 0 0 1 11.964-3.07M12 6.375a3.375 3.375 0 1 1-6.75 0 3.375 3.375 0 0 1 6.75 0Zm8.25 2.25a2.625 2.625 0 1 1-5.25 0 2.625 2.625 0 0 1 5.25 0Z"
	/>
  </symbol>

  <symbol id="users-solid" viewBox="0 0 24 24" fill="currentColor">
    <path
		d="M4.5 6.375a4.125 4.125 0 1 1 8.25 0 4.125 4.125 0 0 1-8.25 0ZM14.25 8.625a3.375 3.375 0 1 1 6.75 0 3.375 3.375 0 0 1-6.75 0ZM1.5 19.125a7.125 7.125 0 0 1 14.25 0v.003l-.001.119a.75.75 0 0 1-.363.63 13.067 13.067 0 0 1-6.761 1.873c-2.472 0-4.786-.684-6.76-1.873a.75.75 0 0 1-.364-.63l-.001-.122ZM17.25 19.128l-.001.144a2.25 2.25 0 0 1-.233.96 10.088 10.088 0 0 0 5.06-1.01.75.75 0 0 0 .42-.643 4.875 4.875 0 0 0-6.957-4.611 8.586 8.586 0 0 1 1.71 5.157v.003Z"
	/>
  </symbol>

  <symbol id="wrench" viewBox="0 0 24 24" fill="none" stroke="currentColor">
    <path
		stroke-linecap="round"
		stroke-linejoin="round"
		d="M21.75 6.75a4.5 4.5 0 0 1-4.884 4.484c-1.076-.091-2.264.071-2.95.904l-7.152 8.684a2.548 2.548 0 1 1-3.586-3.586l8.684-7.152c.833-.686.995-1.874.904-2.95a4.5 4.5 0 0 1 6.336-4.486l-3.276 3.276a3.004 3.004 0 0 0 2.25 2.25l3.276-3.276c.256.565.398 1.192.398 1.852Z"
	/>
	<path stroke-linecap="round" stroke-linejoin="round" d="M4.867 19.125h.008v.008h-.008v-.008Z" />
  </symbol>

  <symbol id="wrench-solid" viewBox="0 0 24 24" fill="currentColor">
    <path
		fill-rule="evenodd"
		d="M12 6.75a5.25 5.25 0 0 1 6.775-5.025.75.75 0 0 1 .313 1.248l-3.32 3.319c.063.475.276.934.641 1.299.365.365.824.578 1.3.64l3.318-3.319a.75.75 0 0 1 1.248.313 5.25 5.25 0 0 1-5.472 6.756c-1.018-.086-1.87.1-2.309.634L7.344 21.3A3.298 3.298 0 1 1 2.7 16.657l8.684-7.151c.533-.44.72-1.291.634-2.309A5.342 5.342 0 0 1 12 6.75ZM4.117 19.125a.75.75 0 0 1 .75-.75h.008a.75.75 0 0 1 .75.75v.008a.75.75 0 0 1-.75.75h-.008a.75.75 0 0 1-.75-.75v-.008Z"
		clip-rule="evenodd"
	/>
  </symbol>

  <symbol id="x-mark" viewBox="0 0 20 20" fill="currentColor">
    <path
		d="M6.28 5.22a.75.75 0 00-1.06 1.06L8.94 10l-3.72 3.72a.75.75 0 101.06 1.06L10 11.06l3.72 3.72a.75.75 0 101.06-1.06L11.06 10l3.72-3.72a.75.75 0 00-1.06-1.06L10 8.94 6.28 5.22z"
	/>
  </symbol>
</defs>

<style>
  text { font: 5px sans-serif; fill: #999; text-anchor: middle; }
</style>

<!-- Visual Grid -->
  <line x1="0" y1="0" x2="576" y2="0" stroke="#eee" stroke-width="0.5"/>
  <line x1="0" y1="56" x2="576" y2="56" stroke="#eee" stroke-width="0.5"/>
  <line x1="0" y1="112" x2="576" y2="112" stroke="#eee" stroke-width="0.5"/>
  <line x1="0" y1="168" x2="576" y2="168" stroke="#eee" stroke-width="0.5"/>
  <line x1="0" y1="224" x2="576" y2="224" stroke="#eee" stroke-width="0.5"/>
  <line x1="0" y1="280" x2="576" y2="280" stroke="#eee" stroke-width="0.5"/>
  <line x1="0" y1="336" x2="576" y2="336" stroke="#eee" stroke-width="0.5"/>
  <line x1="0" y1="392" x2="576" y2="392" stroke="#eee" stroke-width="0.5"/>
  <line x1="0" y1="448" x2="576" y2="448" stroke="#eee" stroke-width="0.5"/>
  <line x1="0" y1="504" x2="576" y2="504" stroke="#eee" stroke-width="0.5"/>
  <line x1="0" y1="560" x2="576" y2="560" stroke="#eee" stroke-width="0.5"/>
  <line x1="0" y1="0" x2="0" y2="560" stroke="#eee" stroke-width="0.5"/>
  <line x1="48" y1="0" x2="48" y2="560" stroke="#eee" stroke-width="0.5"/>
  <line x1="96" y1="0" x2="96" y2="560" stroke="#eee" stroke-width="0.5"/>
  <line x1="144" y1="0" x2="144" y2="560" stroke="#eee" stroke-width="0.5"/>
  <line x1="192" y1="0" x2="192" y2="560" stroke="#eee" stroke-width="0.5"/>
  <line x1="240" y1="0" x2="240" y2="560" stroke="#eee" stroke-width="0.5"/>
  <line x1="288" y1="0" x2="288" y2="560" stroke="#eee" stroke-width="0.5"/>
  <line x1="336" y1="0" x2="336" y2="560" stroke="#eee" stroke-width="0.5"/>
  <line x1="384" y1="0" x2="384" y2="560" stroke="#eee" stroke-width="0.5"/>
  <line x1="432" y1="0" x2="432" y2="560" stroke="#eee" stroke-width="0.5"/>
  <line x1="480" y1="0" x2="480" y2="560" stroke="#eee" stroke-width="0.5"/>
  <line x1="528" y1="0" x2="528" y2="560" stroke="#eee" stroke-width="0.5"/>
  <line x1="576" y1="0" x2="576" y2="560" stroke="#eee" stroke-width="0.5"/>
  <use href="#adjustments-horizontal" x="12" y="8" width="24" height="24" stroke-width="1.5" color="#333"/>
  <text x="24" y="44">adjustments-horizontal</text>
  <use href="#adjustments-horizontal-outline" x="60" y="8" width="24" height="24" stroke-width="1.5" color="#333"/>
  <text x="72" y="44">adjustments-horizontal-outline</text>
  <use href="#archive-box" x="108" y="8" width="24" height="24" stroke-width="2.5" color="#333"/>
  <text x="120" y="44">archive-box</text>
  <use href="#arrow-down-tray" x="156" y="8" width="24" height="24" stroke-width="1.5" color="#333"/>
  <text x="168" y="44">arrow-down-tray</text>
  <use href="#arrow-left" x="204" y="8" width="24" height="24" stroke-width="1.5" color="#333"/>
  <text x="216" y="44">arrow-left</text>
  <use href="#arrow-left-tag" x="252" y="8" width="24" height="24" stroke-width="1.5" color="#333"/>
  <text x="264" y="44">arrow-left-tag</text>
  <use href="#arrow-path" x="300" y="8" width="24" height="24" stroke-width="1.5" color="#333"/>
  <text x="312" y="44">arrow-path</text>
  <use href="#arrow-right" x="348" y="8" width="24" height="24" stroke-width="1.5" color="#333"/>
  <text x="360" y="44">arrow-right</text>
  <use href="#arrow-right-circle" x="396" y="8" width="24" height="24" stroke-width="1.5" color="#333"/>
  <text x="408" y="44">arrow-right-circle</text>
  <use href="#arrow-right-tag" x="444" y="8" width="24" height="24" stroke-width="1.5" color="#333"/>
  <text x="456" y="44">arrow-right-tag</text>
  <use href="#arrow-turn-down-right" x="492" y="8" width="24" height="24" color="#333"/>
  <text x="504" y="44">arrow-turn-down-right</text>
  <use href="#arrow-up-circle" x="540" y="8" width="24" height="24" stroke-width="1.5" color="#333"/>
  <text x="552" y="44">arrow-up-circle</text>
  <use href="#arrow-up-left" x="12" y="64" width="24" height="24" stroke-width="1.5" color="#333"/>
  <text x="24" y="100">arrow-up-left</text>
  <use href="#arrow-up-tray" x="60" y="64" width="24" height="24" stroke-width="1.5" color="#333"/>
  <text x="72" y="100">arrow-up-tray</text>
  <use href="#arrow-uturn-left" x="108" y="64" width="24" height="24" stroke-width="1.5" color="#333"/>
  <text x="120" y="100">arrow-uturn-left</text>
  <use href="#arrow-uturn-right" x="156" y="64" width="24" height="24" stroke-width="1.5" color="#333"/>
  <text x="168" y="100">arrow-uturn-right</text>
  <use href="#arrows-pointing-out" x="204" y="64" width="24" height="24" stroke-width="1.5" color="#333"/>
  <text x="216" y="100">arrows-pointing-out</text>
  <use href="#bars3-bottom-left" x="252" y="64" width="24" height="24" color="#333"/>
  <text x="264" y="100">bars3-bottom-left</text>
  <use href="#bars-arrow-up" x="300" y="64" width="24" height="24" stroke-width="1.5" color="#333"/>
  <text x="312" y="100">bars-arrow-up</text>
  <use href="#bold" x="348" y="64" width="24" height="24" stroke-width="1.5" color="#333"/>
  <text x="360" y="100">bold</text>
  <use href="#bolt" x="396" y="64" width="24" height="24" stroke-width="1.5" color="#333"/>
  <text x="408" y="100">bolt</text>
  <use href="#bookmark" x="444" y="64" width="24" height="24" stroke-width="1.5" color="#333"/>
  <text x="456" y="100">bookmark</text>
  <use href="#bookmark-slash" x="492" y="64" width="24" height="24" stroke-width="1.5" color="#333"/>
  <text x="504" y="100">bookmark-slash</text>
  <use href="#calendar" x="540" y="64" width="24" height="24" stroke-width="1.5" color="#333"/>
  <text x="552" y="100">calendar</text>
  <use href="#camera-solid" x="12" y="120" width="24" height="24" color="#333"/>
  <text x="24" y="156">camera-solid</text>
  <use href="#chart-bar" x="60" y="120" width="24" height="24" color="#333"/>
  <text x="72" y="156">chart-bar</text>
  <use href="#chat-bubble" x="108" y="120" width="24" height="24" stroke-width="1.5" color="#333"/>
  <text x="120" y="156">chat-bubble</text>
  <use href="#chat-bubble-oval" x="156" y="120" width="24" height="24" stroke-width="1.5" color="#333"/>
  <text x="168" y="156">chat-bubble-oval</text>
  <use href="#chat-bubble-oval-ellipsis" x="204" y="120" width="24" height="24" stroke-width="1.5" color="#333"/>
  <text x="216" y="156">chat-bubble-oval-ellipsis</text>
  <use href="#chat-bubbles" x="252" y="120" width="24" height="24" stroke-width="1.5" color="#333"/>
  <text x="264" y="156">chat-bubbles</text>
  <use href="#check" x="300" y="120" width="24" height="24" stroke-width="1.5" color="#333"/>
  <text x="312" y="156">check</text>
  <use href="#check-box" x="348" y="120" width="24" height="24" stroke-width="1.5" color="#333"/>
  <text x="360" y="156">check-box</text>
  <use href="#chevron-down" x="396" y="120" width="24" height="24" stroke-width="1.5" color="#333"/>
  <text x="408" y="156">chevron-down</text>
  <use href="#chevron-left" x="444" y="120" width="24" height="24" stroke-width="1.5" color="#333"/>
  <text x="456" y="156">chevron-left</text>
  <use href="#chevron-right" x="492" y="120" width="24" height="24" stroke-width="1.5" color="#333"/>
  <text x="504" y="156">chevron-right</text>
  <use href="#chevron-up" x="540" y="120" width="24" height="24" stroke-width="1.5" color="#333"/>
  <text x="552" y="156">chevron-up</text>
  <use href="#chevron-up-down" x="12" y="176" width="24" height="24" stroke-width="1.5" color="#333"/>
  <text x="24" y="212">chevron-up-down</text>
  <use href="#clipboard" x="60" y="176" width="24" height="24" stroke-width="2" color="#333"/>
  <text x="72" y="212">clipboard</text>
  <use href="#cloud-arrow-up" x="108" y="176" width="24" height="24" stroke-width="1.5" color="#333"/>
  <text x="120" y="212">cloud-arrow-up</text>
  <use href="#code" x="156" y="176" width="24" height="24" stroke-width="1.5" color="#333"/>
  <text x="168" y="212">code</text>
  <use href="#code-bracket" x="204" y="176" width="24" height="24" stroke-width="1.5" color="#333"/>
  <text x="216" y="212">code-bracket</text>
  <use href="#cog6" x="252" y="176" width="24" height="24" stroke-width="1.5" color="#333"/>
  <text x="264" y="212">cog6</text>
  <use href="#command-line" x="300" y="176" width="24" height="24" stroke-width="1.5" color="#333"/>
  <text x="312" y="212">command-line</text>
  <use href="#command-line-solid" x="348" y="176" width="24" height="24" color="#333"/>
  <text x="360" y="212">command-line-solid</text>
  <use href="#cube" x="396" y="176" width="24" height="24" stroke-width="2" color="#333"/>
  <text x="408" y="212">cube</text>
  <use href="#cursor-arrow-rays" x="444" y="176" width="24" height="24" stroke-width="1.5" color="#333"/>
  <text x="456" y="212">cursor-arrow-rays</text>
  <use href="#document" x="492" y="176" width="24" height="24" stroke-width="1.5" color="#333"/>
  <text x="504" y="212">document</text>
  <use href="#document-arrow-up" x="540" y="176" width="24" height="24" stroke-width="1.5" color="#333"/>
  <text x="552" y="212">document-arrow-up</text>
  <use href="#document-arrow-up-solid" x="12" y="232" width="24" height="24" color="#333"/>
  <text x="24" y="268">document-arrow-up-solid</text>
  <use href="#document-chart-bar" x="60" y="232" width="24" height="24" color="#333"/>
  <text x="72" y="268">document-chart-bar</text>
  <use href="#document-duplicate" x="108" y="232" width="24" height="24" stroke-width="1.5" color="#333"/>
  <text x="120" y="268">document-duplicate</text>
  <use href="#download" x="156" y="232" width="24" height="24" stroke-width="1.5" color="#333"/>
  <text x="168" y="268">download</text>
  <use href="#ellipsis-horizontal" x="204" y="232" width="24" height="24" stroke-width="1.5" color="#333"/>
  <text x="216" y="268">ellipsis-horizontal</text>
  <use href="#ellipsis-vertical" x="252" y="232" width="24" height="24" stroke-width="1.5" color="#333"/>
  <text x="264" y="268">ellipsis-vertical</text>
  <use href="#eye" x="300" y="232" width="24" height="24" stroke-width="1.5" color="#333"/>
  <text x="312" y="268">eye</text>
  <use href="#eye-slash" x="348" y="232" width="24" height="24" stroke-width="1.5" color="#333"/>
  <text x="360" y="268">eye-slash</text>
  <use href="#face-smile" x="396" y="232" width="24" height="24" stroke-width="1.5" color="#333"/>
  <text x="408" y="268">face-smile</text>
  <use href="#folder" x="444" y="232" width="24" height="24" stroke-width="1.5" color="#333"/>
  <text x="456" y="268">folder</text>
  <use href="#folder-open" x="492" y="232" width="24" height="24" stroke-width="1.5" color="#333"/>
  <text x="504" y="268">folder-open</text>
  <use href="#garbage-bin" x="540" y="232" width="24" height="24" stroke-width="1.5" color="#333"/>
  <text x="552" y="268">garbage-bin</text>
  <use href="#github" x="12" y="288" width="24" height="24" color="#333"/>
  <text x="24" y="324">github</text>
  <use href="#globe-alt" x="60" y="288" width="24" height="24" stroke-width="1.5" color="#333"/>
  <text x="72" y="324">globe-alt</text>
  <use href="#globe-alt-solid" x="108" y="288" width="24" height="24" color="#333"/>
  <text x="120" y="324">globe-alt-solid</text>
  <use href="#h1" x="156" y="288" width="24" height="24" stroke-width="1.5" color="#333"/>
  <text x="168" y="324">h1</text>
  <use href="#h2" x="204" y="288" width="24" height="24" stroke-width="1.5" color="#333"/>
  <text x="216" y="324">h2</text>
  <use href="#h3" x="252" y="288" width="24" height="24" stroke-width="1.5" color="#333"/>
  <text x="264" y="324">h3</text>
  <use href="#headphone" x="300" y="288" width="24" height="24" stroke-width="0" color="#333"/>
  <text x="312" y="324">headphone</text>
  <use href="#heart" x="348" y="288" width="24" height="24" stroke-width="1.5" color="#333"/>
  <text x="360" y="324">heart</text>
  <use href="#home" x="396" y="288" width="24" height="24" stroke-width="1.5" color="#333"/>
  <text x="408" y="324">home</text>
  <use href="#info" x="444" y="288" width="24" height="24" stroke-width="1.5" color="#333"/>
  <text x="456" y="324">info</text>
  <use href="#italic" x="492" y="288" width="24" height="24" stroke-width="1.5" color="#333"/>
  <text x="504" y="324">italic</text>
  <use href="#keyboard" x="540" y="288" width="24" height="24" color="#333"/>
  <text x="552" y="324">keyboard</text>
  <use href="#light-bulb" x="12" y="344" width="24" height="24" stroke-width="1.5" color="#333"/>
  <text x="24" y="380">light-bulb</text>
  <use href="#link" x="60" y="344" width="24" height="24" color="#333"/>
  <text x="72" y="380">link</text>
  <use href="#list-bullet" x="108" y="344" width="24" height="24" stroke-width="1.5" color="#333"/>
  <text x="120" y="380">list-bullet</text>
  <use href="#lock-closed" x="156" y="344" width="24" height="24" stroke-width="1.5" color="#333"/>
  <text x="168" y="380">lock-closed</text>
  <use href="#map" x="204" y="344" width="24" height="24" stroke-width="2" color="#333"/>
  <text x="216" y="380">map</text>
  <use href="#menu-lines" x="252" y="344" width="24" height="24" stroke-width="2" color="#333"/>
  <text x="264" y="380">menu-lines</text>
  <use href="#merge" x="300" y="344" width="24" height="24" stroke-width="1.5" color="#333"/>
  <text x="312" y="380">merge</text>
  <use href="#mic" x="348" y="344" width="24" height="24" stroke-width="1.5" color="#333"/>
  <text x="360" y="380">mic</text>
  <use href="#mic-solid" x="396" y="344" width="24" height="24" color="#333"/>
  <text x="408" y="380">mic-solid</text>
  <use href="#minus" x="444" y="344" width="24" height="24" stroke-width="1.5" color="#333"/>
  <text x="456" y="380">minus</text>
  <use href="#numbered-list" x="492" y="344" width="24" height="24" stroke-width="1.5" color="#333"/>
  <text x="504" y="380">numbered-list</text>
  <use href="#pencil" x="540" y="344" width="24" height="24" stroke-width="1.5" color="#333"/>
  <text x="552" y="380">pencil</text>
  <use href="#pencil-solid" x="12" y="400" width="24" height="24" color="#333"/>
  <text x="24" y="436">pencil-solid</text>
  <use href="#pencil-square" x="60" y="400" width="24" height="24" stroke-width="1.5" color="#333"/>
  <text x="72" y="436">pencil-square</text>
  <use href="#photo" x="108" y="400" width="24" height="24" stroke-width="1.5" color="#333"/>
  <text x="120" y="436">photo</text>
  <use href="#photo-solid" x="156" y="400" width="24" height="24" color="#333"/>
  <text x="168" y="436">photo-solid</text>
  <use href="#plus" x="204" y="400" width="24" height="24" stroke-width="2" color="#333"/>
  <text x="216" y="436">plus</text>
  <use href="#question-mark-circle" x="252" y="400" width="24" height="24" stroke-width="2" color="#333"/>
  <text x="264" y="436">question-mark-circle</text>
  <use href="#reset" x="300" y="400" width="24" height="24" stroke-width="2" color="#333"/>
  <text x="312" y="436">reset</text>
  <use href="#search" x="348" y="400" width="24" height="24" stroke-width="1.5" color="#333"/>
  <text x="360" y="436">search</text>
  <use href="#settings" x="396" y="400" width="24" height="24" stroke-width="1.5" color="#333"/>
  <text x="408" y="436">settings</text>
  <use href="#share" x="444" y="400" width="24" height="24" color="#333"/>
  <text x="456" y="436">share</text>
  <use href="#sign-out" x="492" y="400" width="24" height="24" color="#333"/>
  <text x="504" y="436">sign-out</text>
  <use href="#sparkles" x="540" y="400" width="24" height="24" stroke-width="1.5" color="#333"/>
  <text x="552" y="436">sparkles</text>
  <use href="#sparkles-solid" x="12" y="456" width="24" height="24" color="#333"/>
  <text x="24" y="492">sparkles-solid</text>
  <use href="#star" x="60" y="456" width="24" height="24" stroke-width="1.5" color="#333"/>
  <text x="72" y="492">star</text>
  <use href="#strikethrough" x="108" y="456" width="24" height="24" stroke-width="1.5" color="#333"/>
  <text x="120" y="492">strikethrough</text>
  <use href="#underline" x="156" y="456" width="24" height="24" stroke-width="1.5" color="#333"/>
  <text x="168" y="492">underline</text>
  <use href="#user" x="204" y="456" width="24" height="24" color="#333"/>
  <text x="216" y="492">user</text>
  <use href="#user-circle-solid" x="252" y="456" width="24" height="24" color="#333"/>
  <text x="264" y="492">user-circle-solid</text>
  <use href="#user-group" x="300" y="456" width="24" height="24" stroke-width="1.5" color="#333"/>
  <text x="312" y="492">user-group</text>
  <use href="#user-plus-solid" x="348" y="456" width="24" height="24" color="#333"/>
  <text x="360" y="492">user-plus-solid</text>
  <use href="#users" x="396" y="456" width="24" height="24" stroke-width="1.5" color="#333"/>
  <text x="408" y="492">users</text>
  <use href="#users-solid" x="444" y="456" width="24" height="24" color="#333"/>
  <text x="456" y="492">users-solid</text>
  <use href="#wrench" x="492" y="456" width="24" height="24" stroke-width="1.5" color="#333"/>
  <text x="504" y="492">wrench</text>
  <use href="#wrench-solid" x="540" y="456" width="24" height="24" color="#333"/>
  <text x="552" y="492">wrench-solid</text>
  <use href="#x-mark" x="12" y="512" width="24" height="24" color="#333"/>
  <text x="24" y="548">x-mark</text>

</svg>
