<?xml version="1.0" encoding="UTF-8"?>
<!--
  Brand Logo Sprite Sheet — auto-generated by scripts/build-phase2-sprites.mjs
  3 brand logos. Multi-color, does not use currentColor.
-->
<svg xmlns="http://www.w3.org/2000/svg" xmlns:xlink="http://www.w3.org/1999/xlink"
     style="display:none">
<defs>
  <symbol id="github-oauth" viewBox="0 0 24 24">
    <path
							d="M22.56 12.25c0-.78-.07-1.53-.2-2.25H12v4.26h5.92a5.06 5.06 0 0 1-2.2 3.32v2.77h3.57c2.08-1.92 3.28-4.74 3.28-8.1z"
							fill="#4285F4"
						/>
						<path
							d="M12 23c2.97 0 5.46-.98 7.28-2.66l-3.57-2.77c-.98.66-2.23 1.06-3.71 1.06-2.86 0-5.29-1.93-6.16-4.53H2.18v2.84C3.99 20.53 7.7 23 12 23z"
							fill="#34A853"
						/>
						<path
							d="M5.84 14.09c-.22-.66-.35-1.36-.35-2.09s.13-1.43.35-2.09V7.07H2.18C1.43 8.55 1 10.22 1 12s.43 3.45 1.18 4.93l2.85-2.22.81-.62z"
							fill="#FBBC05"
						/>
						<path
							d="M12 5.38c1.62 0 3.06.56 4.21 1.64l3.15-3.15C17.45 2.09 14.97 1 12 1 7.7 1 3.99 3.47 2.18 7.07l3.66 2.84c.87-2.6 3.3-4.53 6.16-4.53z"
							fill="#EA4335"
						/>
  </symbol>

  <symbol id="google" viewBox="0 0 48 48">
    <path
													fill="#EA4335"
													d="M24 9.5c3.54 0 6.71 1.22 9.21 3.6l6.85-6.85C35.9 2.38 30.47 0 24 0 14.62 0 6.51 5.38 2.56 13.22l7.98 6.19C12.43 13.72 17.74 9.5 24 9.5z"
												/><path
													fill="#4285F4"
													d="M46.98 24.55c0-1.57-.15-3.09-.38-4.55H24v9.02h12.94c-.58 2.96-2.26 5.48-4.78 7.18l7.73 6c4.51-4.18 7.09-10.36 7.09-17.65z"
												/><path
													fill="#FBBC05"
													d="M10.53 28.59c-.48-1.45-.76-2.99-.76-4.59s.27-3.14.76-4.59l-7.98-6.19C.92 16.46 0 20.12 0 24c0 3.88.92 7.54 2.56 10.78l7.97-6.19z"
												/><path
													fill="#34A853"
													d="M24 48c6.48 0 11.93-2.13 15.89-5.81l-7.73-6c-2.15 1.45-4.92 2.3-8.16 2.3-6.26 0-11.57-4.22-13.47-9.91l-7.98 6.19C6.51 42.62 14.62 48 24 48z"
												/><path fill="none" d="M0 0h48v48H0z" />
  </symbol>

  <symbol id="microsoft" viewBox="0 0 21 21">
    <rect x="1" y="1" width="9" height="9" fill="#f25022" /><rect
													x="1"
													y="11"
													width="9"
													height="9"
													fill="#00a4ef"
												/><rect x="11" y="1" width="9" height="9" fill="#7fba00" /><rect
													x="11"
													y="11"
													width="9"
													height="9"
													fill="#ffb900"
												/>
  </symbol>
</defs>
</svg>
